<?xml version="1.0" encoding="iso-8859-1"?>
<!-- Generator: Adobe Illustrator 18.1.1, SVG Export Plug-In . SVG Version: 6.00 Build 0)  -->
<svg version="1.1" id="Capa_1" xmlns="http://www.w3.org/2000/svg" xmlns:xlink="http://www.w3.org/1999/xlink" x="0px" y="0px"
	 viewBox="0 0 581.176 581.176" style="enable-background:new 0 0 581.176 581.176;" xml:space="preserve">
<g>
	<g>
		<g>
			<g id="Layer_8_2_">
				<path d="M559.237,115.194C559.237,51.579,507.658,0,444.043,0c-63.59,0-115.194,51.579-115.194,115.194
					c0,40.537,20.947,76.134,52.572,96.669l62.646,127.689l62.598-127.714C538.29,191.304,559.237,155.707,559.237,115.194z
					 M444.043,47.705c37.268,0,67.489,30.221,67.489,67.489s-30.221,67.465-67.489,67.465s-67.465-30.221-67.465-67.465
					S406.775,47.705,444.043,47.705z"/>
			</g>
		</g>
		<g>
			<path d="M466.733,350.667l-22.69,46.276l-22.69-46.276l-59.716-121.756c-18.937-13.73-33.781-31.698-43.758-52.112
				l-144.325-50.465L31.02,174.353c-5.279,1.792-9.081,6.296-9.081,12.084v382.148c0,6.95,5.545,12.592,12.616,12.592l4.044-0.775
				l134.954-52.233l151.59,53.008l142.534-47.995c5.327-1.768,9.105-6.296,9.105-12.084V330.229L466.733,350.667z M325.144,530.614
				l-151.566-53.299v-300.42l151.566,53.323V530.614z"/>
		</g>
	</g>
</g>
<g>
</g>
<g>
</g>
<g>
</g>
<g>
</g>
<g>
</g>
<g>
</g>
<g>
</g>
<g>
</g>
<g>
</g>
<g>
</g>
<g>
</g>
<g>
</g>
<g>
</g>
<g>
</g>
<g>
</g>
</svg>
